<svg width="193" height="25" viewBox="0 0 193 25" fill="none" xmlns="http://www.w3.org/2000/svg">
<path d="M0.689827 12.254H9.26459V16.2238H0.689827V12.254ZM12.5682 12.254H21.143V16.2238H12.5682V12.254ZM24.4466 12.254H33.0213V16.2238H24.4466V12.254ZM36.325 12.254H44.8997V16.2238H36.325V12.254ZM48.2033 12.254H56.7781V16.2238H48.2033V12.254ZM98.0771 12.3175C98.0771 13.9901 97.786 15.5463 97.2038 16.986C96.6321 18.4257 95.8223 19.6802 94.7743 20.7494C93.7262 21.808 92.4612 22.639 90.9791 23.2424C89.5077 23.8458 87.8721 24.1475 86.0725 24.1475C84.2728 24.1475 82.632 23.8458 81.1499 23.2424C79.6679 22.639 78.3975 21.808 77.3389 20.7494C76.2909 19.6802 75.4757 18.4257 74.8935 16.986C74.3219 15.5463 74.036 13.9901 74.036 12.3175C74.036 10.6449 74.3219 9.08874 74.8935 7.64902C75.4757 6.20931 76.2909 4.96015 77.3389 3.90154C78.3975 2.84292 79.6679 2.01191 81.1499 1.4085C82.632 0.805095 84.2728 0.50339 86.0725 0.50339C87.8721 0.50339 89.5077 0.810387 90.9791 1.42438C92.4612 2.02779 93.7262 2.8588 94.7743 3.91742C95.8223 4.97603 96.6321 6.22519 97.2038 7.6649C97.786 9.10462 98.0771 10.6555 98.0771 12.3175ZM92.5829 12.3175C92.5829 11.1742 92.4347 10.1473 92.1383 9.23694C91.8419 8.31595 91.4132 7.53787 90.8521 6.9027C90.3016 6.26754 89.6241 5.78057 88.8196 5.44182C88.015 5.10306 87.0993 4.93368 86.0725 4.93368C85.035 4.93368 84.1087 5.10306 83.2936 5.44182C82.4891 5.78057 81.8062 6.26754 81.2452 6.9027C80.6947 7.53787 80.2713 8.31595 79.9749 9.23694C79.6784 10.1473 79.5302 11.1742 79.5302 12.3175C79.5302 13.4714 79.6784 14.5088 79.9749 15.4298C80.2713 16.3402 80.6947 17.113 81.2452 17.7482C81.8062 18.3834 82.4891 18.8703 83.2936 19.2091C84.1087 19.5372 85.035 19.7013 86.0725 19.7013C87.0993 19.7013 88.015 19.5372 88.8196 19.2091C89.6241 18.8703 90.3016 18.3834 90.8521 17.7482C91.4132 17.113 91.8419 16.3402 92.1383 15.4298C92.4347 14.5088 92.5829 13.4714 92.5829 12.3175ZM108.762 11.6347C109.493 11.6347 110.112 11.5447 110.62 11.3648C111.139 11.1742 111.562 10.9148 111.891 10.5867C112.219 10.2585 112.457 9.8774 112.605 9.44337C112.753 8.99876 112.827 8.52238 112.827 8.01425C112.827 6.99798 112.494 6.20402 111.827 5.63237C111.171 5.06072 110.149 4.77489 108.762 4.77489H106.603V11.6347H108.762ZM120.164 23.8934H115.305C114.405 23.8934 113.759 23.5547 113.367 22.8772L109.525 16.1603C109.345 15.8744 109.143 15.668 108.921 15.541C108.699 15.4034 108.381 15.3346 107.968 15.3346H106.603V23.8934H101.236V0.757457H108.762C110.435 0.757457 111.859 0.932128 113.034 1.28147C114.219 1.62023 115.183 2.0966 115.924 2.7106C116.675 3.32459 117.221 4.04974 117.559 4.88605C117.898 5.72235 118.068 6.63276 118.068 7.61726C118.068 8.36888 117.967 9.07815 117.766 9.74508C117.565 10.412 117.268 11.0313 116.877 11.6029C116.485 12.164 115.998 12.6668 115.416 13.1115C114.844 13.5561 114.182 13.9213 113.431 14.2071C113.78 14.3871 114.108 14.6147 114.415 14.8899C114.722 15.1546 114.998 15.4722 115.241 15.8427L120.164 23.8934ZM136.221 12.254H144.796V16.2238H136.221V12.254ZM148.1 12.254H156.674V16.2238H148.1V12.254ZM159.978 12.254H168.553V16.2238H159.978V12.254ZM171.856 12.254H180.431V16.2238H171.856V12.254ZM183.735 12.254H192.309V16.2238H183.735V12.254Z" fill="#9A031E"/>
</svg>
